<svg width="158" height="40" viewBox="0 0 158 40" fill="none" xmlns="http://www.w3.org/2000/svg">
<path d="M34.1422 5.85781C30.3647 2.08031 25.3422 0 20 0C14.6578 0 9.63531 2.08031 5.85781 5.85781C2.08031 9.63531 0 14.6578 0 20C0 25.3422 2.08039 30.3646 5.85781 34.1422C9.63523 37.9198 14.6578 40 20 40C25.3422 40 30.3647 37.9197 34.1422 34.1422C37.9197 30.3647 40 25.3422 40 20C40 14.6578 37.9196 9.63539 34.1422 5.85781Z" fill="#33CC95"/>
<g clip-path="url(#clip0)">
<path d="M20.5714 8V33.1429" stroke="white" stroke-width="2" stroke-linecap="round" stroke-linejoin="round"/>
<path d="M26.2857 12.5714H17.7143C16.6534 12.5714 15.636 12.9929 14.8859 13.743C14.1357 14.4931 13.7143 15.5106 13.7143 16.5714C13.7143 17.6323 14.1357 18.6497 14.8859 19.3999C15.636 20.15 16.6534 20.5714 17.7143 20.5714H23.4286C24.4894 20.5714 25.5068 20.9929 26.257 21.743C27.0071 22.4931 27.4286 23.5106 27.4286 24.5714C27.4286 25.6323 27.0071 26.6497 26.257 27.3999C25.5068 28.15 24.4894 28.5714 23.4286 28.5714H13.7143" stroke="white" stroke-width="2" stroke-linecap="round" stroke-linejoin="round"/>
</g>
<path d="M54.762 18.486C55.086 18.006 55.53 17.616 56.094 17.316C56.67 17.016 57.324 16.866 58.056 16.866C58.908 16.866 59.676 17.076 60.36 17.496C61.056 17.916 61.602 18.516 61.998 19.296C62.406 20.064 62.61 20.958 62.61 21.978C62.61 22.998 62.406 23.904 61.998 24.696C61.602 25.476 61.056 26.082 60.36 26.514C59.676 26.946 58.908 27.162 58.056 27.162C57.312 27.162 56.658 27.018 56.094 26.73C55.542 26.43 55.098 26.046 54.762 25.578V27H52.242V13.68H54.762V18.486ZM60.036 21.978C60.036 21.378 59.91 20.862 59.658 20.43C59.418 19.986 59.094 19.65 58.686 19.422C58.29 19.194 57.858 19.08 57.39 19.08C56.934 19.08 56.502 19.2 56.094 19.44C55.698 19.668 55.374 20.004 55.122 20.448C54.882 20.892 54.762 21.414 54.762 22.014C54.762 22.614 54.882 23.136 55.122 23.58C55.374 24.024 55.698 24.366 56.094 24.606C56.502 24.834 56.934 24.948 57.39 24.948C57.858 24.948 58.29 24.828 58.686 24.588C59.094 24.348 59.418 24.006 59.658 23.562C59.91 23.118 60.036 22.59 60.036 21.978ZM63.7932 22.014C63.7932 20.982 64.0032 20.082 64.4232 19.314C64.8432 18.534 65.4252 17.934 66.1692 17.514C66.9132 17.082 67.7652 16.866 68.7252 16.866C69.9612 16.866 70.9812 17.178 71.7852 17.802C72.6012 18.414 73.1472 19.278 73.4232 20.394H70.7052C70.5612 19.962 70.3152 19.626 69.9672 19.386C69.6312 19.134 69.2112 19.008 68.7072 19.008C67.9872 19.008 67.4172 19.272 66.9972 19.8C66.5772 20.316 66.3672 21.054 66.3672 22.014C66.3672 22.962 66.5772 23.7 66.9972 24.228C67.4172 24.744 67.9872 25.002 68.7072 25.002C69.7272 25.002 70.3932 24.546 70.7052 23.634H73.4232C73.1472 24.714 72.6012 25.572 71.7852 26.208C70.9692 26.844 69.9492 27.162 68.7252 27.162C67.7652 27.162 66.9132 26.952 66.1692 26.532C65.4252 26.1 64.8432 25.5 64.4232 24.732C64.0032 23.952 63.7932 23.046 63.7932 22.014ZM84.1304 19.098H82.3844V27H79.8284V19.098H78.6944V17.028H79.8284V16.524C79.8284 15.3 80.1764 14.4 80.8724 13.824C81.5684 13.248 82.6184 12.978 84.0224 13.014V15.138C83.4104 15.126 82.9844 15.228 82.7444 15.444C82.5044 15.66 82.3844 16.05 82.3844 16.614V17.028H84.1304V19.098ZM87.0415 15.84C86.5975 15.84 86.2255 15.702 85.9255 15.426C85.6375 15.138 85.4935 14.784 85.4935 14.364C85.4935 13.944 85.6375 13.596 85.9255 13.32C86.2255 13.032 86.5975 12.888 87.0415 12.888C87.4855 12.888 87.8515 13.032 88.1395 13.32C88.4395 13.596 88.5895 13.944 88.5895 14.364C88.5895 14.784 88.4395 15.138 88.1395 15.426C87.8515 15.702 87.4855 15.84 87.0415 15.84ZM88.2835 17.028V27H85.7635V17.028H88.2835ZM96.2993 16.884C97.4873 16.884 98.4473 17.262 99.1793 18.018C99.9113 18.762 100.277 19.806 100.277 21.15V27H97.7573V21.492C97.7573 20.7 97.5593 20.094 97.1633 19.674C96.7673 19.242 96.2273 19.026 95.5433 19.026C94.8473 19.026 94.2953 19.242 93.8873 19.674C93.4913 20.094 93.2933 20.7 93.2933 21.492V27H90.7733V17.028H93.2933V18.27C93.6293 17.838 94.0553 17.502 94.5713 17.262C95.0993 17.01 95.6753 16.884 96.2993 16.884ZM102.026 21.978C102.026 20.97 102.224 20.076 102.62 19.296C103.028 18.516 103.574 17.916 104.258 17.496C104.954 17.076 105.728 16.866 106.58 16.866C107.324 16.866 107.972 17.016 108.524 17.316C109.088 17.616 109.538 17.994 109.874 18.45V17.028H112.412V27H109.874V25.542C109.55 26.01 109.1 26.4 108.524 26.712C107.96 27.012 107.306 27.162 106.562 27.162C105.722 27.162 104.954 26.946 104.258 26.514C103.574 26.082 103.028 25.476 102.62 24.696C102.224 23.904 102.026 22.998 102.026 21.978ZM109.874 22.014C109.874 21.402 109.754 20.88 109.514 20.448C109.274 20.004 108.95 19.668 108.542 19.44C108.134 19.2 107.696 19.08 107.228 19.08C106.76 19.08 106.328 19.194 105.932 19.422C105.536 19.65 105.212 19.986 104.96 20.43C104.72 20.862 104.6 21.378 104.6 21.978C104.6 22.578 104.72 23.106 104.96 23.562C105.212 24.006 105.536 24.348 105.932 24.588C106.34 24.828 106.772 24.948 107.228 24.948C107.696 24.948 108.134 24.834 108.542 24.606C108.95 24.366 109.274 24.03 109.514 23.598C109.754 23.154 109.874 22.626 109.874 22.014ZM120.399 16.884C121.587 16.884 122.547 17.262 123.279 18.018C124.011 18.762 124.377 19.806 124.377 21.15V27H121.857V21.492C121.857 20.7 121.659 20.094 121.263 19.674C120.867 19.242 120.327 19.026 119.643 19.026C118.947 19.026 118.395 19.242 117.987 19.674C117.591 20.094 117.393 20.7 117.393 21.492V27H114.873V17.028H117.393V18.27C117.729 17.838 118.155 17.502 118.671 17.262C119.199 17.01 119.775 16.884 120.399 16.884ZM126.125 22.014C126.125 20.982 126.335 20.082 126.755 19.314C127.175 18.534 127.757 17.934 128.501 17.514C129.245 17.082 130.097 16.866 131.057 16.866C132.293 16.866 133.313 17.178 134.117 17.802C134.933 18.414 135.479 19.278 135.755 20.394H133.037C132.893 19.962 132.647 19.626 132.299 19.386C131.963 19.134 131.543 19.008 131.039 19.008C130.319 19.008 129.749 19.272 129.329 19.8C128.909 20.316 128.699 21.054 128.699 22.014C128.699 22.962 128.909 23.7 129.329 24.228C129.749 24.744 130.319 25.002 131.039 25.002C132.059 25.002 132.725 24.546 133.037 23.634H135.755C135.479 24.714 134.933 25.572 134.117 26.208C133.301 26.844 132.281 27.162 131.057 27.162C130.097 27.162 129.245 26.952 128.501 26.532C127.757 26.1 127.175 25.5 126.755 24.732C126.335 23.952 126.125 23.046 126.125 22.014ZM146.871 21.798C146.871 22.158 146.847 22.482 146.799 22.77H139.509C139.569 23.49 139.821 24.054 140.265 24.462C140.709 24.87 141.255 25.074 141.903 25.074C142.839 25.074 143.505 24.672 143.901 23.868H146.619C146.331 24.828 145.779 25.62 144.963 26.244C144.147 26.856 143.145 27.162 141.957 27.162C140.997 27.162 140.133 26.952 139.365 26.532C138.609 26.1 138.015 25.494 137.583 24.714C137.163 23.934 136.953 23.034 136.953 22.014C136.953 20.982 137.163 20.076 137.583 19.296C138.003 18.516 138.591 17.916 139.347 17.496C140.103 17.076 140.973 16.866 141.957 16.866C142.905 16.866 143.751 17.07 144.495 17.478C145.251 17.886 145.833 18.468 146.241 19.224C146.661 19.968 146.871 20.826 146.871 21.798ZM144.261 21.078C144.249 20.43 144.015 19.914 143.559 19.53C143.103 19.134 142.545 18.936 141.885 18.936C141.261 18.936 140.733 19.128 140.301 19.512C139.881 19.884 139.623 20.406 139.527 21.078H144.261ZM152.527 27.162C151.711 27.162 150.979 27.018 150.331 26.73C149.683 26.43 149.167 26.028 148.783 25.524C148.411 25.02 148.207 24.462 148.171 23.85H150.709C150.757 24.234 150.943 24.552 151.267 24.804C151.603 25.056 152.017 25.182 152.509 25.182C152.989 25.182 153.361 25.086 153.625 24.894C153.901 24.702 154.039 24.456 154.039 24.156C154.039 23.832 153.871 23.592 153.535 23.436C153.211 23.268 152.689 23.088 151.969 22.896C151.225 22.716 150.613 22.53 150.133 22.338C149.665 22.146 149.257 21.852 148.909 21.456C148.573 21.06 148.405 20.526 148.405 19.854C148.405 19.302 148.561 18.798 148.873 18.342C149.197 17.886 149.653 17.526 150.241 17.262C150.841 16.998 151.543 16.866 152.347 16.866C153.535 16.866 154.483 17.166 155.191 17.766C155.899 18.354 156.289 19.152 156.361 20.16H153.949C153.913 19.764 153.745 19.452 153.445 19.224C153.157 18.984 152.767 18.864 152.275 18.864C151.819 18.864 151.465 18.948 151.213 19.116C150.973 19.284 150.853 19.518 150.853 19.818C150.853 20.154 151.021 20.412 151.357 20.592C151.693 20.76 152.215 20.934 152.923 21.114C153.643 21.294 154.237 21.48 154.705 21.672C155.173 21.864 155.575 22.164 155.911 22.572C156.259 22.968 156.439 23.496 156.451 24.156C156.451 24.732 156.289 25.248 155.965 25.704C155.653 26.16 155.197 26.52 154.597 26.784C154.009 27.036 153.319 27.162 152.527 27.162Z" fill="white"/>
<defs>
<clipPath id="clip0">
<rect width="27.4286" height="27.4286" fill="white" transform="translate(6.85714 6.85714)"/>
</clipPath>
</defs>
</svg>
